<?xml version="1.0" encoding="iso-8859-1"?>
<!-- Generator: Adobe Illustrator 16.0.0, SVG Export Plug-In . SVG Version: 6.00 Build 0)  -->
<!DOCTYPE svg PUBLIC "-//W3C//DTD SVG 1.1//EN" "http://www.w3.org/Graphics/SVG/1.1/DTD/svg11.dtd">
<svg version="1.1" id="Capa_1" xmlns="http://www.w3.org/2000/svg" xmlns:xlink="http://www.w3.org/1999/xlink" x="0px" y="0px"
	 width="554.72px" height="554.721px" viewBox="0 0 554.72 554.721" style="enable-background:new 0 0 554.72 554.721;"
	 xml:space="preserve">
<g>
	<g>
		<path d="M50.774,494.562c-12.078,10.204-13.607,28.334-3.404,40.44c9.84,11.608,28.792,13.234,40.42,3.404l71.614-60.474
			c4.705-3.978,8.052-9.467,9.438-15.463l10.605-45.995l45.728,24.796v84.762c0,15.816,12.871,28.688,28.688,28.688
			s28.687-12.871,28.687-28.688V424.192c0-10.528-5.747-20.187-15.012-25.216l-41.396-22.453l-24.786-144.489l38.269-49.878
			c2.869-3.739,4.447-8.386,4.447-13.101v-52.421c0-11.867-9.649-21.516-21.516-21.516c-11.867,0-21.516,9.648-21.516,21.516v45.125
			l-22.147,28.869l-72.646,12.46l-21.697-25.312l6.178-76.137c0.956-11.819-7.889-22.223-19.718-23.189
			c-11.838-0.803-22.223,8.09-23.17,19.718l-6.895,85.068c-0.468,5.756,1.349,11.351,5.106,15.74l53.828,62.807l25.446,134.095
			l-10.242,44.38L50.774,494.562z"/>
		<path d="M159.892,176.485c24.394-8.692,36.911-35.515,28.305-59.651c-8.788-24.308-35.477-37.045-59.833-28.238
			c-24.365,8.568-36.844,35.486-28.267,59.823C108.809,172.536,135.603,185.254,159.892,176.485z"/>
		<circle cx="233.887" cy="39.005" r="39.005"/>
		<path d="M357.548,208.491h9.744c7.392,15.568,17.634,46.062,10.644,86.445c-0.45,2.601,1.29,5.077,3.892,5.526
			c0.277,0.048,0.555,0.067,0.822,0.067c2.285,0,4.303-1.635,4.705-3.959c1.204-6.952,1.854-13.569,2.199-19.947h34.319v22.31
			c0,2.639,2.143,4.781,4.781,4.781c2.64,0,4.781-2.143,4.781-4.781v-22.31h31.948c0.345,6.378,0.995,12.986,2.2,19.947
			c0.401,2.324,2.419,3.959,4.704,3.959c0.268,0,0.545-0.02,0.822-0.067c2.602-0.449,4.342-2.926,3.893-5.526
			c-6.962-40.268,3.289-70.839,10.672-86.445h12.087c7.927,0,14.344-6.417,14.344-14.344s-6.417-14.344-14.344-14.344H357.548
			c-7.928,0-14.344,6.417-14.344,14.344S349.621,208.491,357.548,208.491z M433.456,208.491h43.624
			c-2.744,6.311-5.575,14.325-7.812,23.734h-35.821v-23.734H433.456z M433.456,241.788h33.87c-1.31,7.669-2.104,16.113-2.151,25.274
			h-31.729v-25.274H433.456z M423.893,267.062h-34.1c-0.048-9.161-0.842-17.604-2.152-25.274h36.252V267.062L423.893,267.062z
			 M423.893,208.491v23.734h-38.192c-2.238-9.409-5.068-17.423-7.812-23.734H423.893z"/>
	</g>
</g>
<g>
</g>
<g>
</g>
<g>
</g>
<g>
</g>
<g>
</g>
<g>
</g>
<g>
</g>
<g>
</g>
<g>
</g>
<g>
</g>
<g>
</g>
<g>
</g>
<g>
</g>
<g>
</g>
<g>
</g>
</svg>
