<?xml version="1.0" encoding="iso-8859-1"?>
<!-- Generator: Adobe Illustrator 16.0.0, SVG Export Plug-In . SVG Version: 6.00 Build 0)  -->
<!DOCTYPE svg PUBLIC "-//W3C//DTD SVG 1.1//EN" "http://www.w3.org/Graphics/SVG/1.1/DTD/svg11.dtd">
<svg version="1.1" id="Capa_1" xmlns="http://www.w3.org/2000/svg" xmlns:xlink="http://www.w3.org/1999/xlink" x="0px" y="0px"
	 width="164.711px" height="164.711px" viewBox="0 0 164.711 164.711" style="enable-background:new 0 0 164.711 164.711;"
	 xml:space="preserve">
<g>
	<g>
		<g>
			<path d="M26.731,57.923c4.951-11.228,13.214-20.651,23.526-27.1v-3.647c-12.011,7.015-21.556,17.79-26.936,30.747H26.731z"/>
			<path d="M114.452,30.823c10.327,6.455,18.578,15.872,23.528,27.1h3.404c-5.377-12.958-14.925-23.732-26.933-30.747V30.823
				L114.452,30.823z"/>
			<path d="M50.257,133.891c-10.312-6.454-18.575-15.874-23.526-27.097h-3.41c5.38,12.958,14.924,23.724,26.936,30.738V133.891z"/>
			<path d="M137.98,106.794c-4.95,11.223-13.213,20.643-23.528,27.097v3.642c12.014-7.015,21.556-17.787,26.938-30.744h-3.41
				V106.794z"/>
		</g>
		<g>
			<g>
				<path d="M107.145,43.108H57.576c-2.32,0-4.195-1.885-4.195-4.195V10.129c0-2.314,1.882-4.196,4.195-4.196h49.569
					c2.313,0,4.188,1.881,4.188,4.196v28.783C111.333,41.223,109.458,43.108,107.145,43.108z"/>
				<path d="M88.755,44.28v1.66H75.959v-1.66H47.724c0,2.363,1.379,4.29,3.069,4.29h63.123c1.687,0,3.069-1.933,3.069-4.29H88.755z"
					/>
			</g>
			<g>
				<path d="M107.145,153.322H57.576c-2.32,0-4.195-1.882-4.195-4.195v-28.783c0-2.309,1.882-4.195,4.195-4.195h49.569
					c2.313,0,4.188,1.887,4.188,4.195v28.783C111.333,151.44,109.458,153.322,107.145,153.322z"/>
				<path d="M88.755,154.485v1.662H75.959v-1.662H47.724c0,2.368,1.379,4.293,3.069,4.293h63.123c1.687,0,3.069-1.931,3.069-4.293
					H88.755z"/>
			</g>
			<g>
				<path d="M59.409,98.214H9.846c-2.32,0-4.196-1.881-4.196-4.195V65.236c0-2.313,1.882-4.195,4.196-4.195h49.562
					c2.32,0,4.198,1.882,4.198,4.195v28.783C63.613,96.333,61.729,98.214,59.409,98.214z"/>
				<path d="M41.029,99.378v1.662H28.232v-1.662H0c0,2.362,1.379,4.292,3.069,4.292h63.12c1.689,0,3.066-1.93,3.066-4.292H41.029z"
					/>
			</g>
			<g>
				<path d="M154.866,98.214h-49.56c-2.326,0-4.202-1.881-4.202-4.195V65.236c0-2.313,1.888-4.195,4.202-4.195h49.56
					c2.319,0,4.195,1.882,4.195,4.195v28.783C159.073,96.333,157.185,98.214,154.866,98.214z"/>
				<path d="M136.482,99.378v1.662h-12.793v-1.662H95.454c0,2.362,1.376,4.292,3.068,4.292h63.12c1.693,0,3.069-1.93,3.069-4.292
					H136.482z"/>
			</g>
		</g>
	</g>
</g>
<g>
</g>
<g>
</g>
<g>
</g>
<g>
</g>
<g>
</g>
<g>
</g>
<g>
</g>
<g>
</g>
<g>
</g>
<g>
</g>
<g>
</g>
<g>
</g>
<g>
</g>
<g>
</g>
<g>
</g>
</svg>
