<?xml version="1.0" encoding="iso-8859-1"?>
<!-- Generator: Adobe Illustrator 19.0.0, SVG Export Plug-In . SVG Version: 6.00 Build 0)  -->
<svg version="1.1" id="Layer_1" xmlns="http://www.w3.org/2000/svg" xmlns:xlink="http://www.w3.org/1999/xlink" x="0px" y="0px"
	 viewBox="0 0 512 512" style="enable-background:new 0 0 512 512;" xml:space="preserve">
<g>
	<g>
		<path d="M509.629,439.507l-70.171-117.398c-3.011-5.043-8.457-8.13-14.325-8.13h-40.314l-13.926-13.925
			c-5.32-0.239-10.628-0.638-15.889-1.379l-63.582,63.572l22.563,22.566v40.303c0,5.871,3.086,11.317,8.13,14.328l117.408,70.181
			c6.548,3.929,14.948,2.899,20.369-2.522l47.216-47.227C512.519,454.464,513.563,446.073,509.629,439.507z"/>
	</g>
</g>
<g>
	<g>
		<path d="M504.281,88.676c-4.081-11.437-18.794-14.933-27.531-6.195l-68.29,68.301l-39.357-7.869l-7.869-39.357l68.29-68.29
			c8.641-8.618,5.359-23.407-6.195-27.531c-48.37-17.23-102.998-4.937-139.236,31.301c-33.705,33.694-46.694,83.301-34.51,128.951
			l-143.917,143.93c-51.75-4.852-105.648,39.018-105.648,99.909c0,55.237,44.933,100.17,100.17,100.17
			c60.755,0,104.772-53.778,99.909-105.648l143.928-143.918c45.651,12.205,95.246-0.805,128.941-34.498
			C509.215,191.683,521.508,137.021,504.281,88.676z M100.188,445.215c-18.412,0-33.39-14.978-33.39-33.39
			c0-18.412,14.978-33.39,33.39-33.39c18.412,0,33.39,14.978,33.39,33.39C133.578,430.237,118.601,445.215,100.188,445.215z"/>
	</g>
</g>
<g>
	<g>
		<path d="M215.696,97.645l-82.998-82.998c-19.552-19.552-51.352-19.494-70.823,0L14.649,61.862
			c-19.532,19.532-19.532,51.302,0,70.835l111.508,111.508l47.217-47.224L71.69,95.295c-6.521-6.521-6.521-17.087,0-23.608
			c6.521-6.521,17.087-6.521,23.608,0L196.98,173.37l16.357-16.36C210.518,137.076,211.45,116.978,215.696,97.645z"/>
	</g>
</g>
<g>
</g>
<g>
</g>
<g>
</g>
<g>
</g>
<g>
</g>
<g>
</g>
<g>
</g>
<g>
</g>
<g>
</g>
<g>
</g>
<g>
</g>
<g>
</g>
<g>
</g>
<g>
</g>
<g>
</g>
</svg>
