<?xml version="1.0" encoding="iso-8859-1"?>
<!-- Generator: Adobe Illustrator 19.0.0, SVG Export Plug-In . SVG Version: 6.00 Build 0)  -->
<svg version="1.1" id="Layer_1" xmlns="http://www.w3.org/2000/svg" xmlns:xlink="http://www.w3.org/1999/xlink" x="0px" y="0px"
	 viewBox="0 0 511.999 511.999" style="enable-background:new 0 0 511.999 511.999;" xml:space="preserve">
<g>
	<g>
		<path d="M509.635,439.514l-70.173-117.399c-3.014-5.042-8.457-8.129-14.33-8.129h-40.31l-46.179-46.176l5.38-5.38
			c45.651,12.183,95.257-0.807,128.949-34.501c36.243-36.243,48.534-90.9,31.312-139.247c-4.109-11.535-18.867-14.865-27.532-6.203
			l-68.292,68.299l-39.351-7.871l-7.871-39.352l68.292-68.289c8.657-8.656,5.34-23.419-6.201-27.531
			c-48.341-17.23-102.993-4.941-139.236,31.3c-23.795,23.792-37.248,55.519-38.823,88.182L132.697,14.643
			C113.179-4.874,81.383-4.882,61.874,14.641L14.646,61.859c-19.528,19.53-19.528,51.305,0,70.835l135.116,135.115l-44.105,44.105
			c-1.739-0.157-3.562-0.258-5.47-0.258c-55.234,0-100.171,44.937-100.171,100.171c0,55.234,44.937,100.171,100.171,100.171
			c55.234,0,100.171-44.937,100.171-100.171c0-1.908-0.102-3.732-0.258-5.472l67.714-67.714l46.175,46.179v40.302
			c0,5.873,3.086,11.316,8.129,14.33l117.403,70.181c6.563,3.923,14.96,2.887,20.371-2.525l47.217-47.222
			C512.518,454.476,513.559,446.082,509.635,439.514z M38.256,109.084c-6.51-6.511-6.51-17.104-0.001-23.614l47.234-47.221
			c6.461-6.466,17.127-6.467,23.598,0.004c141.75,141.75,133.04,133.322,135.405,134.826l-23.9,23.9L95.297,71.683
			c-6.519-6.519-17.09-6.519-23.61,0c-6.52,6.519-6.52,17.09,0,23.61l125.296,125.296l-23.61,23.61L38.256,109.084z M256.02,303.211
			c-0.003,0.003-0.008,0.007-0.011,0.01c-0.003,0.003-0.007,0.008-0.01,0.011l-85.3,85.3c-3.701,3.7-5.452,8.922-4.73,14.105
			c0.56,3.946,0.999,6.723,0.999,9.187c0,36.823-29.958,66.78-66.78,66.78c-36.823,0-66.78-29.958-66.78-66.78
			s29.958-66.78,66.78-66.78c2.165,0,4.611,0.348,7.444,0.753c6.105,0.861,11.263,0.098,15.847-4.484l156.838-156.838
			c4.56-4.56,6.086-11.337,3.921-17.411c-12.925-36.254-3.715-77.242,23.463-104.417c20.306-20.302,48.323-30.561,76.308-29.086
			l-52.701,52.699c-3.947,3.947-5.661,9.605-4.566,15.08l11.807,59.027c1.322,6.609,6.488,11.773,13.096,13.097l59.027,11.807
			c5.473,1.092,11.133-0.619,15.08-4.567l52.7-52.705c1.488,27.995-8.787,56.015-29.091,76.318
			c-27.172,27.176-68.157,36.384-104.415,23.459c-6.075-2.168-12.852-0.64-17.411,3.92L256.02,303.211z M445.483,474.295
			l-98.105-58.643v-37.747c0-4.429-1.759-8.674-4.889-11.805l-51.066-51.069l23.61-23.61l51.069,51.064
			c3.131,3.131,7.377,4.891,11.805,4.891h37.753l58.638,98.102L445.483,474.295z"/>
	</g>
</g>
<g>
	<g>
		<path d="M100.186,378.436c-18.411,0-33.39,14.979-33.39,33.39c0,18.411,14.979,33.39,33.39,33.39s33.39-14.979,33.39-33.39
			C133.576,393.415,118.597,378.436,100.186,378.436z"/>
	</g>
</g>
<g>
</g>
<g>
</g>
<g>
</g>
<g>
</g>
<g>
</g>
<g>
</g>
<g>
</g>
<g>
</g>
<g>
</g>
<g>
</g>
<g>
</g>
<g>
</g>
<g>
</g>
<g>
</g>
<g>
</g>
</svg>
