<?xml version="1.0" encoding="iso-8859-1"?>
<!-- Generator: Adobe Illustrator 17.1.0, SVG Export Plug-In . SVG Version: 6.00 Build 0)  -->
<!DOCTYPE svg PUBLIC "-//W3C//DTD SVG 1.1//EN" "http://www.w3.org/Graphics/SVG/1.1/DTD/svg11.dtd">
<svg version="1.1" id="Capa_1" xmlns="http://www.w3.org/2000/svg" xmlns:xlink="http://www.w3.org/1999/xlink" x="0px" y="0px"
	 viewBox="0 0 274.563 274.563" style="enable-background:new 0 0 274.563 274.563;" xml:space="preserve">
<g>
	<path d="M253.689,81.75c0,13.669-11.081,24.75-24.75,24.75s-24.75-11.081-24.75-24.75c0-13.669,11.081-24.75,24.75-24.75
		S253.689,68.081,253.689,81.75z M212.034,133.715l-88-54c-0.459-0.282-0.928-0.533-1.403-0.76c-2.34-1.746-5.06-3.062-8.073-3.804
		c-12.063-2.966-24.254,4.406-27.225,16.473l-16.337,66.391c-1.266,4.194-1.063,10.906-1.054,11.064
		c1.55,27.699-10.762,54.19-32.935,70.864l-10.147,7.631c-6.621,4.979-7.952,14.383-2.973,21.004c2.947,3.92,7.445,5.985,12,5.985
		c3.138,0,6.303-0.981,9.004-3.013l10.147-7.631c22.203-16.696,37.133-40.625,42.651-67.117
		c21.728,18.667,39.198,41.952,50.983,68.185c2.498,5.562,7.966,8.857,13.691,8.857c2.054,0,4.143-0.425,6.138-1.321
		c7.557-3.395,10.931-12.272,7.536-19.829c-14.19-31.586-35.51-59.483-62.12-81.464c0.297-0.8,0.567-1.615,0.775-2.463
		l12.739-51.768l68.911,42.286c2.448,1.502,5.156,2.217,7.831,2.217c5.044,0,9.969-2.543,12.8-7.156
		C221.306,147.284,219.095,138.048,212.034,133.715z M120.638,63.674c17.583,0,31.837-14.254,31.837-31.837
		C152.475,14.254,138.221,0,120.638,0c-17.583,0-31.837,14.254-31.837,31.837C88.801,49.42,103.055,63.674,120.638,63.674z"/>
</g>
<g>
</g>
<g>
</g>
<g>
</g>
<g>
</g>
<g>
</g>
<g>
</g>
<g>
</g>
<g>
</g>
<g>
</g>
<g>
</g>
<g>
</g>
<g>
</g>
<g>
</g>
<g>
</g>
<g>
</g>
</svg>
